<svg width="167" height="76" viewBox="0 0 167 76" fill="none" xmlns="http://www.w3.org/2000/svg">
<path d="M52.9353 33.1516L43.2909 19.3575V33.1516H33.3272V1.41391H43.3136V14.8203L53.2317 1.48231H65.0421L52.8897 16.4847L65.2245 33.1516H52.9353ZM79.2237 1.41391H69.2373V33.1288H79.2237V1.41391ZM69.0549 58.3912C69.0549 48.9292 74.8917 41.7244 84.0801 41.7244C88.6857 41.7244 92.2881 43.8904 93.9981 47.1052V42.568H103.985V74.2144H93.9981V69.7456C92.2881 72.892 88.3437 75.058 83.9661 75.058C74.5041 75.0808 69.0549 67.9216 69.0549 58.3912ZM94.3857 58.3912C94.3857 53.854 91.8321 50.1148 86.8389 50.1148C82.1877 50.1148 79.2921 53.6032 79.2921 58.3912C79.2921 63.1792 82.1877 66.736 86.8389 66.736C91.8321 66.736 94.3857 62.9968 94.3857 58.3912ZM109.844 42.5908H119.876V49.2256C120.993 44.506 124.733 42.0664 128.609 42.0664C129.794 42.0664 130.455 42.1348 131.231 42.34L131.185 51.6652C129.999 51.5284 129.452 51.46 128.221 51.46C122.772 51.46 119.876 54.994 119.876 62.0164V74.2372H109.844V42.5908ZM133.283 58.3912C133.283 48.0172 140.054 41.7244 150.337 41.7244C160.187 41.7244 166.89 47.8348 166.89 56.7496C166.89 58.3912 166.821 59.3716 166.616 61.15H143.246C143.451 65.2768 146.21 67.5112 150.656 67.5112C153.734 67.5112 155.718 66.6676 156.561 64.684H166.411C165.431 70.9084 159.069 75.058 150.656 75.058C139.917 75.0808 133.283 68.9704 133.283 58.3912ZM156.972 54.9256C156.903 50.7304 154.555 48.496 150.269 48.496C145.937 48.496 143.315 51.0496 143.246 54.9256H156.972ZM95.0697 23.7352V1.43671H85.0377V24.0772V33.1744H95.0697H109.388V23.758H95.0697V23.7352ZM124.869 23.7352V1.43671H114.837V24.0772V33.1744H124.869H139.188V23.758H124.869V23.7352ZM55.1925 42.568V53.968H43.154V42.568H33.3272V53.968V63.0652V74.3056H43.1768V63.0652H55.2153V74.3056H65.0649V63.0652V53.968V42.568H55.1925ZM20.924 55.4272L14.7908 53.74C12.716 53.1244 12.0092 52.2124 12.0092 50.9356C12.0092 49.522 13.1036 48.7012 14.54 48.5416C16.6148 48.2908 18.2108 49.2028 18.2108 51.4372V51.574H28.7672V51.4372C28.7672 45.1216 23.432 41.6332 14.4944 41.6332C6.35478 41.6332 0.973972 45.5776 0.973972 51.574C0.973972 56.3848 3.86958 59.5996 8.90839 60.8536L15.2468 62.4496C17.1164 63.0424 17.8916 63.9544 17.8688 65.4136C17.8688 66.9868 16.2728 67.8988 14.654 67.9672C12.3056 68.0812 10.5956 66.8044 10.4588 64.7752H0.130371C0.289971 70.8172 6.19518 75.0808 15.0644 75.0808C23.4548 75.0808 28.904 71.2048 28.904 64.6156C28.9268 59.782 25.9172 56.7496 20.924 55.4272ZM20.924 14.3643L14.7908 12.6771C12.716 12.0615 12.0092 11.1495 12.0092 9.87273C12.0092 8.45913 13.1036 7.63833 14.54 7.47873C16.6148 7.22792 18.2108 8.13993 18.2108 10.3743V10.5111H28.7672V10.3743C28.7672 4.05872 23.432 0.570312 14.4944 0.570312C6.35478 0.570312 0.973972 4.51472 0.973972 10.5111C0.973972 15.3219 3.86958 18.5367 8.90839 19.7907L15.2468 21.3867C17.1164 21.9796 17.8916 22.8916 17.8688 24.3508C17.8688 25.924 16.2728 26.836 14.654 26.9044C12.3056 27.0184 10.5956 25.7416 10.4588 23.7124H0.130371C0.289971 29.7544 6.19518 34.018 15.0644 34.018C23.4548 34.018 28.904 30.142 28.904 23.5528C28.9268 18.6963 25.9172 15.6867 20.924 14.3643Z" fill="white"/>
</svg>
